<svg width="16" height="16" viewBox="0 0 16 16" fill="none" xmlns="http://www.w3.org/2000/svg">
    <path fill-rule="evenodd" clip-rule="evenodd" d="M13.185 2.815a.667.667 0 1 0-.943.943 6 6 0 0 1 0 8.484.667.667 0 1 0 .943.943 7.333 7.333 0 0 0 0-10.37zM10.83 5.17a.667.667 0 0 0-.943.942 2.667 2.667 0 0 1 0 3.771.667.667 0 1 0 .943.943 4 4 0 0 0 0-5.656zM8 3.333a.667.667 0 0 0-1.083-.52l-3.151 2.52H1.333A.667.667 0 0 0 .667 6v4c0 .368.298.667.666.667h2.433l3.15 2.52A.667.667 0 0 0 8 12.667V3.333zM4.416 6.521l2.25-1.8v6.559l-2.25-1.8A.667.667 0 0 0 4 9.333H2V6.667h2a.667.667 0 0 0 .416-.146z" fill="#fff"/>
</svg>
