<svg width="24" height="24" viewBox="0 0 24 24" fill="none" xmlns="http://www.w3.org/2000/svg">
    <path fill-rule="evenodd" clip-rule="evenodd" d="M6.658 3.51A5 5 0 0 0 3.45 4.965L2.207 6.207A1 1 0 0 1 .793 4.793L2.036 3.55a7 7 0 0 1 4.95-2.05h.672a1 1 0 0 1 1 1v3.62l7.096 4.287a1 1 0 0 1 .448 1.12l-.854 3.13a5 5 0 0 1-4.824 3.685H8.072l-3.865 3.865a1 1 0 0 1-1.414-1.414l4.158-4.158a1 1 0 0 1 .707-.293h2.866a3 3 0 0 0 2.894-2.21l.655-2.403L7.141 7.54a1 1 0 0 1-.483-.856V3.511zM18 12a1 1 0 0 1 1-1h3a1 1 0 1 1 0 2h-3a1 1 0 0 1-1-1zM16.293 7.682a1 1 0 0 1 0-1.414l2.121-2.121A1 1 0 1 1 19.83 5.56l-2.122 2.121a1 1 0 0 1-1.414 0zM16.707 16.872a1 1 0 0 1 1.414 0l2.122 2.121a1 1 0 0 1-1.415 1.414l-2.121-2.121a1 1 0 0 1 0-1.414z" fill="#2E1A46"/>
</svg>
