<svg width="24" height="24" viewBox="0 0 24 24" fill="none" xmlns="http://www.w3.org/2000/svg">
    <path fill-rule="evenodd" clip-rule="evenodd" d="M8.853 6.167A5 5 0 0 1 12.973 4h1.772a2 2 0 0 1 1.908 1.399l1.14 3.617-.222.265-.67.079a7 7 0 0 0-5.229 3.425l-.004.008-1.635.818a1 1 0 0 0-.489 1.245l.21.558a6 6 0 0 0 5.34 3.886l.219 1.36a1 1 0 1 0 1.974-.32l-.354-2.193a1 1 0 0 0-.987-.84h-.575a4 4 0 0 1-3.628-2.315l1.086-.543a1 1 0 0 0 .416-.39l.155-.266a5 5 0 0 1 3.735-2.447l1.066-.125a1 1 0 0 0 .652-.353l.96-1.152 1.699 10.938a1 1 0 1 0 1.976-.308l-2.04-13.123a1 1 0 0 0-1.756-.487l-.378.454-.753-2.392A4 4 0 0 0 14.745 2h-1.772a7 7 0 0 0-5.768 3.034l-.585.851-5.284.881a1 1 0 0 0-.827 1.122l.093.682a7 7 0 0 0 6.03 5.995l.136.018.629 5.87a1 1 0 1 0 1.989-.213l-.713-6.653a1 1 0 0 0-.865-.886l-.917-.119A5 5 0 0 1 2.63 8.578l4.737-.79a1 1 0 0 0 .66-.42l.826-1.2z" fill="#2E1A46"/>
</svg>
