<svg width="16" height="16" viewBox="0 0 16 16" fill="none" xmlns="http://www.w3.org/2000/svg">
    <path fill-rule="evenodd" clip-rule="evenodd" d="M8 2a6 6 0 1 0 0 12A6 6 0 0 0 8 2zM.667 8a7.333 7.333 0 1 1 14.666 0A7.333 7.333 0 0 1 .667 8z" fill="#fff"/>
    <path d="M7.333 11.333a.667.667 0 1 0 1.333 0 .667.667 0 0 0-1.333 0zM8 4a2.667 2.667 0 0 0-2.584 2.007c-.091.357.216.66.584.66s.653-.316.83-.64a1.333 1.333 0 0 1 2.503.64c0 1.18-1.565 1.185-1.926 2.67-.087.359.225.663.593.663s.651-.314.811-.645c.46-.95 1.856-1.296 1.856-2.688A2.667 2.667 0 0 0 8 4z" fill="#fff"/>
</svg>
