<svg width="24" height="24" viewBox="0 0 24 24" fill="none" xmlns="http://www.w3.org/2000/svg">
    <path fill-rule="evenodd" clip-rule="evenodd" d="M8.666 9a3.333 3.333 0 1 1 6.667 0 3.333 3.333 0 0 1-6.667 0zM12 7.667a1.333 1.333 0 1 0 0 2.666 1.333 1.333 0 0 0 0-2.666z" fill="#2E1A46"/>
    <path d="m12 18.111.464.886c-.29.152-.638.152-.929 0L12 18.11z" fill="#2E1A46"/>
    <path fill-rule="evenodd" clip-rule="evenodd" d="M17.48 15C18.837 13.434 20 11.398 20 9A8 8 0 0 0 4 9c0 2.398 1.164 4.434 2.52 6H5a1 1 0 0 0-.894.553l-3 6A1 1 0 0 0 2 23h20a1 1 0 0 0 .894-1.447l-3-6A1 1 0 0 0 19 15h-1.52zM12 3a6 6 0 0 0-6 6c0 2.292 1.487 4.319 3.174 5.859a18.17 18.17 0 0 0 2.826 2.1 18.168 18.168 0 0 0 2.826-2.1C16.513 13.319 18 11.292 18 9a6 6 0 0 0-6-6zm0 15.111-.465.886-.002-.002-.006-.003-.02-.01a8.798 8.798 0 0 1-.31-.174A20.71 20.71 0 0 1 8.595 17H5.62l-2 4h16.764l-2-4h-2.977a20.715 20.715 0 0 1-2.603 1.808 12.936 12.936 0 0 1-.31.174l-.019.01-.006.003-.002.001-.465-.885z" fill="#2E1A46"/>
</svg>
