<svg width="10" height="10" viewBox="0 0 10 10" fill="none" xmlns="http://www.w3.org/2000/svg">
    <path fill-rule="evenodd" clip-rule="evenodd" d="M5 1.042a3.333 3.333 0 0 0-3.333 3.333c0 1.282.83 2.428 1.744 3.291a10.341 10.341 0 0 0 1.59 1.224A10.343 10.343 0 0 0 6.59 7.666c.913-.863 1.744-2.01 1.744-3.29A3.333 3.333 0 0 0 5 1.041zm0 8.333-.202.364h-.002l-.003-.002-.01-.006a3.806 3.806 0 0 1-.161-.096 11.173 11.173 0 0 1-1.783-1.364C1.878 7.365.833 6.012.833 4.376a4.167 4.167 0 0 1 8.334 0c0 1.635-1.044 2.989-2.006 3.897a11.173 11.173 0 0 1-1.944 1.46l-.01.005-.003.002L5 9.375zm0 0 .203.364a.417.417 0 0 1-.405 0L5 9.375z" fill="#2E1A46"/>
    <path fill-rule="evenodd" clip-rule="evenodd" d="M5 3.289a.833.833 0 1 0 0 1.667.833.833 0 0 0 0-1.667zm-1.667.833a1.667 1.667 0 1 1 3.334 0 1.667 1.667 0 0 1-3.333 0z" fill="#2E1A46"/>
</svg>
