<svg width="20" height="20" viewBox="0 0 20 20" fill="none" xmlns="http://www.w3.org/2000/svg">
    <path fill-rule="evenodd" clip-rule="evenodd" d="M10.549 6.691c-.288-.626-.37-1.39-.233-2.155.137-.764.481-1.455.97-1.946.486-.49 1.181-.836 1.956-.702.774.134 1.307.693 1.593 1.315.288.626.37 1.39.233 2.155-.137.764-.482 1.455-.97 1.947-.486.489-1.182.835-1.956.701-.774-.133-1.307-.692-1.593-1.315zm1.517-.702c.131.286.286.362.37.377.085.015.258-.005.48-.23.22-.221.425-.59.51-1.062.085-.472.021-.887-.109-1.17-.13-.284-.286-.361-.37-.376-.085-.014-.257.006-.48.23-.22.221-.424.59-.51 1.062-.084.473-.02.888.11 1.17zM5.066 3.204c.286-.623.818-1.182 1.593-1.316.774-.134 1.47.213 1.955.702.489.492.834 1.182.971 1.947.137.764.054 1.529-.233 2.155-.286.622-.819 1.181-1.593 1.315-.775.134-1.47-.213-1.956-.702-.489-.492-.833-1.182-.97-1.947-.138-.764-.055-1.529.233-2.154zm1.517.701c-.13.282-.193.697-.108 1.17.085.472.29.84.51 1.062.222.224.394.244.479.23.084-.015.24-.092.37-.377.13-.282.194-.697.109-1.17-.085-.472-.29-.84-.51-1.062-.223-.224-.395-.244-.48-.23-.084.015-.239.092-.37.377zM14.09 11.243c1.094 1.037 2.024 2.477 2.024 3.852 0 .897-.226 1.645-.761 2.172-.524.515-1.207.681-1.817.727-.609.045-1.273-.022-1.865-.087l-.199-.022c-.542-.06-1.028-.115-1.473-.115-.376 0-.795.039-1.273.083l-.34.031c-.59.053-1.256.101-1.872.043-.612-.057-1.293-.227-1.823-.713-.554-.51-.807-1.237-.807-2.119 0-1.36.878-2.798 1.962-3.846 1.096-1.06 2.613-1.926 4.152-1.926 1.472-.001 2.988.872 4.092 1.92zm-1.147 1.209c-.952-.904-2.076-1.463-2.943-1.462h-.001c-.949 0-2.072.566-2.995 1.458-.935.903-1.454 1.935-1.454 2.647 0 .561.152.784.268.891.142.13.398.24.85.282.45.042.977.01 1.569-.044l.303-.028c.48-.045.998-.093 1.459-.093.545 0 1.13.066 1.657.125h.002l.197.022c.607.068 1.124.114 1.557.082.433-.033.653-.136.772-.253.107-.105.263-.351.263-.984 0-.699-.54-1.729-1.504-2.643zM2.14 5.534c-.76.201-1.242.804-1.473 1.45C.435 7.631.42 8.4.623 9.15c.203.75.607 1.408 1.136 1.855.527.445 1.25.73 2.01.529.76-.201 1.242-.805 1.472-1.45.232-.648.248-1.417.045-2.166-.204-.75-.607-1.408-1.137-1.855-.527-.445-1.25-.73-2.01-.529zm.094 3.19c-.126-.463-.098-.882.006-1.174.106-.295.253-.385.336-.407.083-.022.257-.017.498.187.239.201.475.55.6 1.014.126.463.099.882-.006 1.174-.105.295-.253.385-.336.407-.083.022-.256.017-.498-.187-.238-.201-.474-.55-.6-1.014zM14.712 7.918c-.204.75-.188 1.518.045 2.167.23.645.712 1.248 1.472 1.449.76.2 1.483-.084 2.01-.529.529-.447.932-1.105 1.136-1.854.203-.75.187-1.519-.045-2.167-.23-.646-.712-1.249-1.472-1.45-.76-.2-1.483.084-2.01.529-.529.447-.933 1.105-1.136 1.855zm1.954 2.007c-.083-.022-.23-.112-.337-.407-.104-.292-.131-.711-.006-1.174.126-.463.362-.813.6-1.014.242-.204.415-.21.498-.187.083.022.23.112.337.407.104.292.131.711.006 1.175-.126.463-.362.812-.6 1.013-.242.204-.415.21-.498.187z" fill="#2E1A46"/>
</svg>
