<svg width="102" height="102" viewBox="0 0 102 102" fill="none" xmlns="http://www.w3.org/2000/svg">
    <g opacity=".5" clip-path="url(#a)">
        <path d="M72.49 11a20.467 20.467 0 0 0-16.207 7.532c-2.49 2.892-3.434 5.764-5.463 5.764s-2.993-2.872-5.483-5.764A20.425 20.425 0 0 0 29.149 11C13.343 11 3.04 25.942 3.04 40.724c0 27.054 28.298 51.215 47.82 51.215 19.522 0 47.8-24.101 47.8-51.215C98.66 25.943 88.337 11 72.551 11" fill="#614D82"/>
        <path d="M25.334 42.512a5.103 5.103 0 0 1-.261-.442 6.668 6.668 0 0 1-.221-4.86c.442-1.366 2.33-3.776 4.017-2.41.43.437.711 1 .803 1.606.482 2.31.22 6.026-1.507 7.01a2.129 2.129 0 0 1-2.771-.904M52.628 34.398c2.33 0 2.791 3.535 3.032 5.242a5.363 5.363 0 0 1-3.594 5.282c-1.145.301-1.768-.542-2.009-1.506a10.503 10.503 0 0 1 .884-8.295 2.008 2.008 0 0 1 1.747-.723M40.075 57.013a5.043 5.043 0 0 1-.883 4.016 5.606 5.606 0 0 1-1.105 1.386 4.017 4.017 0 0 1-2.51.984 5.241 5.241 0 0 1-2.632-.622 1.326 1.326 0 0 1-.622-.523c-.13-.289-.173-.61-.12-.923 0-.697.08-1.4.24-2.11a6.707 6.707 0 0 1 .924-2.931c.089-.15.213-.273.362-.362.18-.092.38-.133.582-.12h1.647c.522 0 4.54 0 4.218.923" fill="#fff"/>
        <path d="M35.577 60.005a.421.421 0 0 1 .562.221c.059.224.059.459 0 .683a17.958 17.958 0 0 0 .14 6.387 4.179 4.179 0 0 0 3.475 2.49 8.375 8.375 0 0 0 4.6-.442 4.841 4.841 0 0 0 2.309-2.25c.308-.832.67-1.644 1.084-2.43.184-.28.462-.487.784-.582a2.13 2.13 0 0 1 1.345.322 1.727 1.727 0 0 1 .844 1.747 6.689 6.689 0 0 1-1.647 3.655 7.673 7.673 0 0 1-2.772 2.008 9.039 9.039 0 0 1-4.639 1.427 13.48 13.48 0 0 1-3.575-.503 6.467 6.467 0 0 1-1.848-.863c-.582-.402-1.044-1.065-1.727-1.266-.683-.2-1.185.462-1.647.844a5.423 5.423 0 0 1-4.318 1.366 7.19 7.19 0 0 1-5.744-4.017 6.29 6.29 0 0 1-.442-2.009c-.15-1.01-.21-2.031-.18-3.052.023-.273.128-.531.3-.743a1.204 1.204 0 0 1 .925-.342c2.008 0 1.627 2.009 1.807 3.334a6.969 6.969 0 0 0 1.527 3.113 3.194 3.194 0 0 0 3.534.803c1.105-.28 2.551-.863 2.913-2.008.076-.6.021-1.21-.161-1.787a13.6 13.6 0 0 1 0-2.009c0-1.283.354-2.541 1.024-3.635.301-.442 1.004-.402 1.547-.361M66.365 21.524a13.499 13.499 0 0 1 4.017-1.105 3.536 3.536 0 0 1 3.193.462c.394.463.652 1.026.743 1.627.6 2.764.21 5.65-1.104 8.154a3.715 3.715 0 0 1-1.406 1.627 1.586 1.586 0 0 1-2.008-.361 2.008 2.008 0 0 1 .16-2.009c.402-.602.944-1.084 1.306-1.727a4.198 4.198 0 0 0 .22-3.234 2.208 2.208 0 0 0-.522-.923c-.344-.265-.77-.4-1.205-.382a5.545 5.545 0 0 0-4.016 2.39c-.563.663-1.045 1.406-1.547 2.008-.502.603-.863 1.386-1.466 1.667-.602.282-1.145-.783-1.245-1.365a3.656 3.656 0 0 1 .803-2.993 13.275 13.275 0 0 1 4.157-3.896M22.08 20.078a3.756 3.756 0 0 1 2.63-1.145 4.016 4.016 0 0 1 3.294.603c.349.341.622.752.804 1.205a12.57 12.57 0 0 1 1.124 4.017 2.31 2.31 0 0 1-.622 2.008c-.804.522-2.009-.562-2.41-1.165-.743-1.044-.743-2.43-1.406-3.515-.663-1.084-.984.362-1.225.964a14.26 14.26 0 0 1-2.11 4.339c-.662.743-2.77 1.024-3.092-.261a1.407 1.407 0 0 1 0-.643 17.512 17.512 0 0 1 2.972-6.487M25.334 42.512a5.103 5.103 0 0 1-.261-.442 6.668 6.668 0 0 1-.221-4.86c.442-1.366 2.33-3.776 4.017-2.41.43.437.711 1 .803 1.606.482 2.31.22 6.026-1.507 7.01a2.129 2.129 0 0 1-2.771-.904M52.628 34.398c2.33 0 2.791 3.535 3.032 5.242a5.363 5.363 0 0 1-3.594 5.282c-1.145.301-1.768-.542-2.009-1.506a10.503 10.503 0 0 1 .884-8.295 2.008 2.008 0 0 1 1.747-.723" fill="#fff"/>
        <path d="M40.075 57.013a5.043 5.043 0 0 1-.883 4.016 5.606 5.606 0 0 1-1.105 1.386 4.017 4.017 0 0 1-2.51.984 5.241 5.241 0 0 1-2.632-.622 1.326 1.326 0 0 1-.622-.523c-.13-.289-.173-.61-.12-.923 0-.697.08-1.4.24-2.11a6.707 6.707 0 0 1 .924-2.931c.089-.15.213-.273.362-.362.18-.092.38-.133.582-.12h1.647c.522 0 4.54 0 4.218.923" fill="#fff"/>
        <path d="M35.577 60.005a.421.421 0 0 1 .562.221c.059.224.059.459 0 .683a17.958 17.958 0 0 0 .14 6.387 4.179 4.179 0 0 0 3.475 2.49 8.375 8.375 0 0 0 4.6-.442 4.841 4.841 0 0 0 2.309-2.25c.308-.832.67-1.644 1.084-2.43.184-.28.462-.487.784-.582a2.13 2.13 0 0 1 1.345.322 1.727 1.727 0 0 1 .844 1.747 6.689 6.689 0 0 1-1.647 3.655 7.673 7.673 0 0 1-2.772 2.008 9.039 9.039 0 0 1-4.639 1.427 13.48 13.48 0 0 1-3.575-.503 6.467 6.467 0 0 1-1.848-.863c-.582-.402-1.044-1.065-1.727-1.266-.683-.2-1.185.462-1.647.844a5.423 5.423 0 0 1-4.318 1.366 7.19 7.19 0 0 1-5.744-4.017 6.29 6.29 0 0 1-.442-2.009c-.15-1.01-.21-2.031-.18-3.052.023-.273.128-.531.3-.743a1.204 1.204 0 0 1 .925-.342c2.008 0 1.627 2.009 1.807 3.334a6.969 6.969 0 0 0 1.527 3.113 3.194 3.194 0 0 0 3.534.803c1.105-.28 2.551-.863 2.913-2.008.076-.6.021-1.21-.161-1.787a13.6 13.6 0 0 1 0-2.009c0-1.283.354-2.541 1.024-3.635.301-.442 1.004-.402 1.547-.361M66.365 21.524a13.499 13.499 0 0 1 4.017-1.105 3.536 3.536 0 0 1 3.193.462c.394.463.652 1.026.743 1.627.6 2.764.21 5.65-1.104 8.154a3.715 3.715 0 0 1-1.406 1.627 1.586 1.586 0 0 1-2.008-.361 2.008 2.008 0 0 1 .16-2.009c.402-.602.944-1.084 1.306-1.727a4.198 4.198 0 0 0 .22-3.234 2.208 2.208 0 0 0-.522-.923c-.344-.265-.77-.4-1.205-.382a5.545 5.545 0 0 0-4.016 2.39c-.563.663-1.045 1.406-1.547 2.008-.502.603-.863 1.386-1.466 1.667-.602.282-1.145-.783-1.245-1.365a3.656 3.656 0 0 1 .803-2.993 13.275 13.275 0 0 1 4.157-3.896M22.08 20.078a3.756 3.756 0 0 1 2.63-1.145 4.016 4.016 0 0 1 3.294.603c.349.341.622.752.804 1.205a12.57 12.57 0 0 1 1.124 4.017 2.31 2.31 0 0 1-.622 2.008c-.804.522-2.009-.562-2.41-1.165-.743-1.044-.743-2.43-1.406-3.515-.663-1.084-.984.362-1.225.964a14.26 14.26 0 0 1-2.11 4.339c-.662.743-2.77 1.024-3.092-.261a1.407 1.407 0 0 1 0-.643 17.512 17.512 0 0 1 2.972-6.487" fill="#fff"/>
    </g>
    <defs>
        <clipPath id="a">
            <path fill="#fff" transform="translate(3 11)" d="M0 0h95.6v80.939H0z"/>
        </clipPath>
    </defs>
</svg>
