<svg width="16" height="16" viewBox="0 0 16 16" fill="none" xmlns="http://www.w3.org/2000/svg">
<g opacity="0.5">
<path fill-rule="evenodd" clip-rule="evenodd" d="M12.4713 3.52864C12.7317 3.78899 12.7317 4.2111 12.4713 4.47145L4.47132 12.4714C4.21097 12.7318 3.78886 12.7318 3.52851 12.4714C3.26816 12.2111 3.26816 11.789 3.52851 11.5286L11.5285 3.52864C11.7889 3.26829 12.211 3.26829 12.4713 3.52864Z" fill="#2E1A46"/>
<path fill-rule="evenodd" clip-rule="evenodd" d="M3.54853 3.70002C3.80888 3.43967 4.23099 3.43967 4.49134 3.70002L12.4913 11.7C12.7517 11.9604 12.7517 12.3825 12.4913 12.6428C12.231 12.9032 11.8089 12.9032 11.5485 12.6428L3.54853 4.64283C3.28818 4.38248 3.28818 3.96037 3.54853 3.70002Z" fill="#2E1A46"/>
</g>
</svg>
