<svg width="16" height="16" viewBox="0 0 16 16" fill="none" xmlns="http://www.w3.org/2000/svg">
<path fill-rule="evenodd" clip-rule="evenodd" d="M0.666748 7.99996C0.666748 3.94987 3.94999 0.666626 8.00008 0.666626C12.0502 0.666626 15.3334 3.94987 15.3334 7.99996C15.3334 12.05 12.0502 15.3333 8.00008 15.3333C3.94999 15.3333 0.666748 12.05 0.666748 7.99996ZM11.0238 4.97647C11.2842 5.23682 11.2842 5.65893 11.0238 5.91928L8.94293 8.00016L11.0238 10.081C11.2842 10.3414 11.2842 10.7635 11.0238 11.0238C10.7635 11.2842 10.3413 11.2842 10.081 11.0238L8.00012 8.94297L5.91924 11.0238C5.65889 11.2842 5.23678 11.2842 4.97643 11.0238C4.71608 10.7635 4.71608 10.3414 4.97643 10.081L7.05731 8.00016L4.97643 5.91928C4.71608 5.65893 4.71608 5.23682 4.97643 4.97647C5.23678 4.71612 5.65889 4.71612 5.91924 4.97647L8.00012 7.05735L10.081 4.97647C10.3413 4.71612 10.7635 4.71612 11.0238 4.97647Z" fill="#A39FBD"/>
</svg>
