<svg width="28" height="28" viewBox="0 0 28 28" fill="none" xmlns="http://www.w3.org/2000/svg">
    <path fill-rule="evenodd" clip-rule="evenodd" d="M14.768 9.368c-.402-.876-.519-1.947-.326-3.017.192-1.07.675-2.037 1.359-2.725.68-.685 1.653-1.17 2.737-.983 1.084.187 1.83.97 2.23 1.841.404.877.52 1.947.328 3.017-.193 1.07-.675 2.037-1.36 2.726-.68.684-1.653 1.17-2.737.982-1.084-.187-1.83-.97-2.23-1.841zM7.092 4.485c.4-.871 1.146-1.654 2.23-1.841 1.084-.188 2.058.297 2.738.982.684.688 1.167 1.655 1.36 2.725.191 1.07.075 2.141-.328 3.017-.4.872-1.146 1.654-2.23 1.842-1.084.187-2.058-.298-2.738-.983-.684-.688-1.166-1.655-1.359-2.725-.192-1.07-.076-2.14.327-3.017zM19.727 15.74c1.53 1.452 2.833 3.469 2.833 5.393 0 1.256-.316 2.304-1.066 3.041-.733.721-1.69.953-2.543 1.017-.853.064-1.783-.03-2.611-.121l-.279-.031c-.76-.085-1.44-.161-2.063-.161-.525 0-1.113.054-1.781.116h-.002c-.154.015-.313.03-.476.044-.826.074-1.757.141-2.62.06-.856-.08-1.81-.318-2.551-.998-.777-.713-1.13-1.732-1.13-2.967 0-1.905 1.228-3.918 2.746-5.384 1.535-1.483 3.658-2.696 5.814-2.696 2.06-.002 4.183 1.22 5.729 2.687zM2.996 7.748C1.932 8.029 1.257 8.874.934 9.777.61 10.685.587 11.76.872 12.81c.285 1.049.85 1.97 1.591 2.596.738.623 1.75 1.021 2.813.74 1.064-.281 1.739-1.125 2.062-2.029.325-.908.347-1.984.062-3.033-.285-1.05-.85-1.97-1.591-2.597-.738-.623-1.75-1.021-2.813-.74zM20.597 11.085c-.285 1.05-.263 2.126.062 3.034.323.903.998 1.747 2.061 2.028 1.064.282 2.076-.117 2.814-.74.741-.626 1.306-1.547 1.59-2.596.286-1.05.263-2.126-.061-3.034-.323-.903-.998-1.748-2.062-2.029-1.063-.281-2.076.118-2.813.74-.741.626-1.306 1.548-1.591 2.597z" fill="#78A7CB"/>
</svg>
