<svg width="20" height="20" viewBox="0 0 20 20" fill="none" xmlns="http://www.w3.org/2000/svg">
    <path d="M2.5 18.333a.757.757 0 0 1-.584-.25c-.25-.25-.333-.583-.166-.833l1.5-4.417c-.5-1-.75-2.167-.75-3.25 0-1.5.416-2.917 1.166-4.167s1.917-2.25 3.25-2.916c1.084-.583 2.334-.833 3.5-.833h.417c2 .083 3.833.916 5.167 2.333 1.416 1.417 2.166 3.167 2.333 5.166v.5c0 1.25-.25 2.417-.833 3.584a7.65 7.65 0 0 1-2.917 3.166 8.05 8.05 0 0 1-4.167 1.167c-1.083 0-2.166-.25-3.166-.666l-4.417 1.5c-.167-.084-.25-.084-.333-.084zm7.916-15c-1 0-1.916.25-2.75.667-1.083.5-1.916 1.333-2.5 2.333-.666.917-1 2.083-1 3.25 0 1 .25 1.917.667 2.75.083.167.083.417.083.667l-1.083 3.166L7 15.083c.25-.083.416-.083.666.083.834.417 1.834.667 2.75.667 1.167 0 2.334-.333 3.25-.917 1-.583 1.75-1.5 2.334-2.5a6.445 6.445 0 0 0 .666-2.833v-.417c-.083-1.5-.75-2.916-1.833-4a6.187 6.187 0 0 0-4.083-1.833h-.334z" fill="#2E1A46"/>
</svg>
