<svg width="20" height="20" viewBox="0 0 20 20" fill="none" xmlns="http://www.w3.org/2000/svg">
    <path fill-rule="evenodd" clip-rule="evenodd" d="M10.549 6.691c-.288-.626-.37-1.39-.233-2.155.137-.764.481-1.455.97-1.946.486-.49 1.181-.836 1.956-.702.774.134 1.307.693 1.593 1.315.288.626.37 1.39.233 2.155-.137.764-.482 1.455-.97 1.947-.486.489-1.182.835-1.956.701-.774-.133-1.307-.692-1.593-1.315zM5.066 3.204c.286-.623.818-1.182 1.593-1.316.774-.134 1.47.213 1.955.702.489.492.834 1.182.971 1.947.137.764.054 1.529-.233 2.155-.286.622-.819 1.181-1.593 1.315-.775.134-1.47-.213-1.956-.702-.489-.492-.833-1.182-.97-1.947-.138-.764-.055-1.529.233-2.154zM14.09 11.243c1.094 1.037 2.024 2.477 2.024 3.852 0 .897-.226 1.645-.761 2.172-.524.515-1.207.681-1.817.727-.609.045-1.273-.022-1.865-.087l-.199-.022c-.542-.06-1.028-.115-1.473-.115-.376 0-.795.039-1.273.083l-.34.031c-.59.053-1.256.101-1.872.043-.612-.057-1.293-.227-1.823-.713-.554-.51-.807-1.237-.807-2.119 0-1.36.878-2.798 1.962-3.846 1.096-1.06 2.613-1.926 4.152-1.926 1.472-.001 2.988.872 4.092 1.92zM2.14 5.534c-.76.201-1.242.804-1.473 1.45C.435 7.631.42 8.4.623 9.15c.203.75.607 1.408 1.136 1.855.527.445 1.25.73 2.01.529.76-.201 1.242-.805 1.472-1.45.232-.648.248-1.417.045-2.166-.204-.75-.607-1.408-1.137-1.855-.527-.445-1.25-.73-2.01-.529zM14.712 7.918c-.204.75-.188 1.518.045 2.167.23.645.712 1.248 1.472 1.449.76.2 1.483-.084 2.01-.529.529-.447.932-1.105 1.136-1.854.203-.75.187-1.519-.045-2.167-.23-.646-.712-1.249-1.472-1.45-.76-.2-1.483.084-2.01.529-.529.447-.933 1.105-1.136 1.855z" fill="#EAB4C3"/>
</svg>
