<svg width="13" height="12" viewBox="0 0 13 12" fill="none" xmlns="http://www.w3.org/2000/svg">
    <path fill-rule="evenodd" clip-rule="evenodd" d="M2.61 2.11A5.484 5.484 0 0 1 6.5.5c1.519 0 2.894.616 3.89 1.61A5.485 5.485 0 0 1 12 6a5.485 5.485 0 0 1-1.61 3.89A5.485 5.485 0 0 1 6.5 11.5a5.485 5.485 0 0 1-3.89-1.61A5.484 5.484 0 0 1 1 6c0-1.519.616-2.894 1.61-3.89zm6.744 2.744a.5.5 0 1 0-.708-.708L5.5 7.293 4.354 6.146a.5.5 0 1 0-.708.708l1.5 1.5a.5.5 0 0 0 .708 0l3.5-3.5z" fill="#EC675F"/>
</svg>
