<svg width="24" height="24" viewBox="0 0 24 24" fill="none" xmlns="http://www.w3.org/2000/svg">
    <path d="M16.161 11.01a1 1 0 0 1 1.13.851l.7 5a1 1 0 0 1-1.981.278l-.7-5a1 1 0 0 1 .851-1.13z" fill="#2E1A46"/>
    <path fill-rule="evenodd" clip-rule="evenodd" d="M17 6h3a1 1 0 0 1 .991.868l1.698 12.735A3 3 0 0 1 19.715 23H4.285a3 3 0 0 1-2.974-3.396L3.009 6.867A1 1 0 0 1 3.999 6h3a5 5 0 1 1 10 0zm-2 0a3 3 0 0 0-6 0h6zM4.875 8 3.293 19.868A1 1 0 0 0 4.284 21h15.431a1 1 0 0 0 .992-1.132L19.124 8H4.875z" fill="#2E1A46"/>
</svg>
