<svg width="32" height="34" viewBox="0 0 32 34" fill="none" xmlns="http://www.w3.org/2000/svg">
    <path d="m16.89 32.603.002-.002s0 0 0 0l.004-.001v-.001l.01-.005.002-.001.031-.018h.001l.116-.067a33.113 33.113 0 0 0 1.855-1.183 36.267 36.267 0 0 0 4.348-3.492c3.105-2.932 6.574-7.39 6.574-12.833a13.833 13.833 0 1 0-27.666 0c0 5.444 3.47 9.9 6.574 12.833a36.263 36.263 0 0 0 5.787 4.427 21.6 21.6 0 0 0 .532.315h0l.032.018h.002l.01.006h0l.004.003h0a1.835 1.835 0 0 0 1.782 0zm-4.39-18.27a3.5 3.5 0 1 1 7 0 3.5 3.5 0 0 1-7 0z" fill="#78A7CB" stroke="#fff" stroke-linecap="round" stroke-linejoin="round"/>
</svg>
