<svg width="16" height="16" viewBox="0 0 16 16" fill="none" xmlns="http://www.w3.org/2000/svg">
    <path fill-rule="evenodd" clip-rule="evenodd" d="M7.622 2.732A.667.667 0 0 1 8 3.333v9.333a.667.667 0 0 1-1.083.521l-3.151-2.52H1.333A.667.667 0 0 1 .667 10V6c0-.368.298-.667.666-.667h2.433l3.15-2.52c.2-.16.475-.192.706-.08zM6.667 4.72l-2.25 1.8A.667.667 0 0 1 4 6.667H2v2.666h2c.151 0 .298.052.416.146l2.25 1.8V4.72zm9.138.808c.26.26.26.683 0 .943L14.276 8l1.529 1.528a.667.667 0 0 1-.943.943l-1.529-1.528-1.528 1.528a.667.667 0 1 1-.943-.943L12.39 8 10.862 6.47a.667.667 0 1 1 .943-.943l1.528 1.529 1.529-1.529c.26-.26.682-.26.943 0z" fill="#fff"/>
</svg>
