<svg width="105" height="26" viewBox="0 0 105 26" fill="none" xmlns="http://www.w3.org/2000/svg">
    <g clip-path="url(#a)" fill="#2E1A46">
        <path d="M53.19 6.313h-6.227V9.52h2.367v16.067h10.447v-3.635H53.19V6.313zM66.004 6.313h-6.227V9.52h2.366v16.067H72.59v-3.635h-6.586V6.313zM79.464 14.705h-.11l-3.526-8.392h-4.297l5.932 12.54-3.16 6.734h4.335L87.14 6.313h-4.095l-3.58 8.392zM19.508 6.313l-6.796 8.143-6.858-8.143H0V9.52h2.32v16.067h3.86V12.151l6.532 7.707 6.469-7.707v13.436h3.869V6.313h-3.542zM35.902 5.9a10.05 10.05 0 1 0 0 20.1 10.05 10.05 0 0 0 0-20.1zm0 16.534a6.484 6.484 0 1 1 6.383-6.484 6.446 6.446 0 0 1-6.383 6.485M101.945 11.357c-1.098-1.253-2.289-2.133-4.056-2.133-1.557 0-2.732.779-2.732 1.97 0 1.19.778 1.775 2.335 2.49l1.611.78c3.114 1.44 5.006 2.903 5.006 5.814 0 2.912-2.468 5.745-6.741 5.745a9.015 9.015 0 0 1-7.092-3.012l2.117-2.974a7.87 7.87 0 0 0 4.959 2.46c1.666 0 2.872-.919 2.872-2.11 0-1.479-1.23-2.187-3.113-3.051l-1.363-.638c-2.608-1.223-4.351-2.889-4.351-5.333 0-3.332 2.685-5.449 6.227-5.449a8.698 8.698 0 0 1 6.493 3.02l-2.172 2.421zM91.903 0a1.41 1.41 0 0 0-1.12.522c-.172.202-.242.397-.382.397s-.203-.195-.374-.397A1.424 1.424 0 0 0 88.907 0 1.946 1.946 0 0 0 87.1 2.055a3.308 3.308 0 1 0 6.61 0A1.954 1.954 0 0 0 91.902 0"/>
    </g>
    <defs>
        <clipPath id="a">
            <path fill="#fff" d="M0 0h104.148v26H0z"/>
        </clipPath>
    </defs>
</svg>
