<svg xmlns="http://www.w3.org/2000/svg" xmlns:xlink="http://www.w3.org/1999/xlink" width="25" height="24" viewBox="0 0 25 24">
    <defs>
        <path id="q14ep0kaya" d="M0 0H24V24H0z"/>
    </defs>
    <g fill="none" fill-rule="evenodd">
        <g>
            <g>
                <g>
                    <g>
                        <g>
                            <g transform="translate(-34.000000, -281.000000) translate(0.000000, 70.000000) translate(24.000000, 16.000000) translate(0.000000, 177.000000) translate(10.000000, 18.000000)">
                                <mask id="g15248fe4b" fill="#fff">
                                    <use xlink:href="#q14ep0kaya"/>
                                </mask>
                                <g fill="#242629" mask="url(#g15248fe4b)">
                                    <g>
                                        <path d="M5.632 7.2H1.568C.704 7.196.004 6.496 0 5.632V1.568C.004.704.704.004 1.568 0h4.064C6.496.004 7.196.704 7.2 1.568v4.064c-.004.864-.704 1.564-1.568 1.568zM2.064 1.8c-.144.003-.26.12-.264.264v3.072c0 .146.118.264.264.264h3.072c.146 0 .264-.118.264-.264V2.064c0-.146-.118-.264-.264-.264H2.064zM14.632 7.2h-4.064C9.704 7.196 9.004 6.496 9 5.632V1.568C9.004.704 9.704.004 10.568 0h4.064c.864.004 1.564.704 1.568 1.568v4.064c-.004.864-.704 1.564-1.568 1.568zm-3.568-5.4c-.144.003-.26.12-.264.264v3.072c0 .146.118.264.264.264h3.072c.146 0 .264-.118.264-.264V2.064c0-.146-.118-.264-.264-.264h-3.072zM5.632 16.2H1.568C.704 16.196.004 15.496 0 14.632v-4.064C.004 9.704.704 9.004 1.568 9h4.064c.864.004 1.564.704 1.568 1.568v4.064c-.004.864-.704 1.564-1.568 1.568zm-3.568-5.4c-.144.003-.26.12-.264.264v3.072c0 .146.118.264.264.264h3.072c.146 0 .264-.118.264-.264v-3.072c0-.146-.118-.264-.264-.264H2.064zM14.632 16.2h-4.064c-.864-.004-1.564-.704-1.568-1.568v-4.064c.004-.864.704-1.564 1.568-1.568h4.064c.864.004 1.564.704 1.568 1.568v4.064c-.004.864-.704 1.564-1.568 1.568zm-3.568-5.4c-.144.003-.26.12-.264.264v3.072c0 .146.118.264.264.264h3.072c.146 0 .264-.118.264-.264v-3.072c0-.146-.118-.264-.264-.264h-3.072z" transform="translate(3.900000, 3.900000)"/>
                                    </g>
                                </g>
                            </g>
                        </g>
                    </g>
                </g>
            </g>
        </g>
    </g>
</svg>
