<svg width="126" height="147" viewBox="0 0 126 147" fill="none" xmlns="http://www.w3.org/2000/svg">
    <g opacity=".4" fill="#A8C4E1">
        <path d="M133.124 34.135c-6.543 22.93-40.63 40.01-40.974 5.444 1.91-9.869 7.513-18.792 15.221-25.416 16.077-13.887 33.188 2.696 25.753 19.972zM43.934 19.158c-6.447 29.114 30.543 43.503 35.312 8.465 6.756-30-28.395-38.932-35.312-8.465z"/>
        <path d="M106.622 123.309c-1.463-37.887-22.262-94.344-68.42-56.206-39.183 29.155-49.367 58.857 8.39 70.96 22.683 8.271 57.071 19.448 60.03-14.754zM20.737 68.286c25.784-2.313 16.798-53.352-10.398-38.612-16.82 10.432-11.734 42.067 10.398 38.612zM111.888 80.333c2.768-21.547 47.922-33.746 39.047-2.576-.303.497-.573 1.028-.844 1.56-.443.872-.888 1.747-1.484 2.482-6.64 12.464-37.035 17.65-36.719-1.466z"/>
    </g>
</svg>
