<svg width="104" height="104" viewBox="0 0 104 104" fill="none" xmlns="http://www.w3.org/2000/svg">
<g opacity="0.5" clip-path="url(#clip0_803_6376)">
<path d="M73.8916 11.2157C70.737 11.165 67.6121 11.8318 64.7528 13.1656C61.8936 14.4995 59.3747 16.4656 57.3865 18.9154C54.8472 21.8642 53.8848 24.772 51.7961 24.772C49.7073 24.772 48.7653 21.8642 46.226 18.9154C44.2317 16.4674 41.7088 14.503 38.8467 13.1694C35.9846 11.8359 32.8577 11.1679 29.7005 11.2157C13.5845 11.2157 3.07935 26.4717 3.07935 41.5229C3.07935 69.127 31.9326 93.7414 51.8166 93.7414C71.7006 93.7414 100.554 69.168 100.554 41.5229C100.554 26.4717 90.0282 11.2157 73.9326 11.2157" fill="#F4D171"/>
<path d="M25.052 46.2533C25.6571 46.8833 26.4282 47.3293 27.2762 47.5395C28.1242 47.7496 29.0143 47.7155 29.8437 47.441C31.6141 46.9705 33.1959 45.9645 34.3726 44.5605C35.5493 43.1566 36.2633 41.4233 36.4171 39.598C36.4955 39.1627 36.4485 38.714 36.2818 38.3044C36.115 37.8947 35.8352 37.5409 35.4751 37.284C34.2669 36.7311 33.4274 37.8369 32.9564 38.8199C32.2396 40.4376 32.3625 42.7311 30.9086 43.9803C30.069 44.7584 27.796 44.9632 27.407 43.5912C27.3254 43.0413 27.3254 42.4824 27.407 41.9325C27.4771 40.6828 27.6206 39.4383 27.8369 38.2055C27.8369 37.6731 28.0622 36.8949 27.407 36.6492C27.0179 36.5587 26.6121 36.5696 26.2285 36.6807C25.8448 36.7919 25.4962 36.9996 25.2158 37.284C24.4673 38.5103 24.1569 39.9541 24.3353 41.3796C24.0462 42.984 24.2682 44.6386 24.9701 46.11V46.2328" fill="white"/>
<path d="M52.0008 45.8027C52.3192 46.6398 52.746 47.4316 53.2704 48.1577C55.7482 51.4956 60.4173 49.1816 62.076 46.1099C62.7301 44.9195 63.1407 43.6108 63.2841 42.2601C63.3661 41.7171 63.3661 41.1648 63.2841 40.6218C63.0793 39.9255 62.8132 38.9427 61.9531 38.8812C61.5512 38.912 61.1604 39.0285 60.8073 39.2228C60.4541 39.417 60.1466 39.6846 59.9053 40.0075C59.5146 40.6239 59.2824 41.3274 59.2295 42.0553C59.2295 42.3624 59.2295 42.6696 59.1067 42.9563C59.0191 43.3108 58.9096 43.6597 58.779 44.0007C58.5784 44.6371 58.1848 45.1953 57.6527 45.5979C57.389 45.8017 57.0796 45.9381 56.7513 45.9952C56.423 46.0523 56.0858 46.0284 55.7688 45.9256C53.721 45.2089 54.9701 41.83 54.8678 40.3761C54.8678 39.9665 54.8677 39.2498 54.4582 39.0245C54.1371 38.8353 53.7628 38.7569 53.3928 38.8013C53.0228 38.8457 52.6776 39.0105 52.4104 39.2703C51.7542 40.1949 51.3668 41.2831 51.2909 42.4143C51.215 43.5456 51.4537 44.6758 51.9804 45.6798" fill="white"/>
<path d="M15.4273 55.8983C15.1969 55.8586 14.9615 55.8586 14.7311 55.8983C14.3237 56.1067 14.0146 56.4672 13.871 56.9017C13.5718 57.7462 13.3524 58.6169 13.2157 59.5024C13.0007 60.356 13.0007 61.2496 13.2157 62.1031C13.3616 62.4742 13.5544 62.8251 13.7891 63.1475C14.1671 63.7714 14.7336 64.2591 15.4068 64.54C15.8706 64.6535 16.3568 64.6371 16.8119 64.4926C17.2671 64.3481 17.6736 64.0811 17.987 63.7208C18.6097 62.9918 19.0579 62.1304 19.2977 61.2021L19.6662 59.9325C19.871 59.2158 20.0758 58.499 20.3011 57.7823C20.4327 57.4254 20.4327 57.0333 20.3011 56.6765C20.2021 56.4919 20.0584 56.3351 19.8831 56.2206C19.7078 56.1061 19.5064 56.0376 19.2977 56.0212C18.7315 55.9911 18.1641 55.9911 17.598 56.0212H15.3863" fill="white"/>
<path d="M35.5776 67.6731C37.0111 67.6731 38.424 67.4273 39.8369 67.3044C42.7011 67.041 45.5856 67.0959 48.4377 67.4683C49.1134 67.4683 49.8097 67.6935 50.4854 67.8574C51.1612 68.0212 51.407 68.1236 51.5298 68.5331C51.6527 68.9427 51.0179 69.6389 50.4036 69.8232C48.8638 70.2066 47.2802 70.3856 45.6937 70.3557C37.0316 70.54 28.3694 70.6628 19.6868 70.6628C19.1544 70.6628 18.3967 70.6628 18.2533 69.9666C17.9666 68.7379 19.6254 68.3898 20.4855 67.9188C21.0045 67.736 21.5533 67.6527 22.1032 67.6731H31.093H35.5366" fill="white"/>
<path d="M94.779 35.2567L95.25 36.6082C96.8878 40.9591 97.0106 45.7353 95.5982 50.1645C95.2701 51.0204 94.6644 51.7414 93.878 52.2123C91.4716 53.373 88.8179 53.9275 86.1481 53.8276C83.4783 53.7276 80.8735 52.9763 78.5606 51.6389C74.9975 48.8949 74.465 43.7345 74.9565 39.3522C75.0794 38.3488 75.3865 37.1611 76.349 36.8335C76.8691 36.7419 77.4045 36.8548 77.8433 37.1486C78.2821 37.4425 78.5905 37.8945 78.704 38.4103C78.9195 39.4468 78.9815 40.5093 78.8882 41.5639C78.8882 42.0349 79.052 42.4853 79.0316 42.9358C79.0111 43.0853 79.0111 43.2369 79.0316 43.3864C79.0628 43.8202 79.1245 44.2513 79.2159 44.6765C79.3701 45.5213 79.6387 46.3412 80.0145 47.1133C81.8984 50.8608 90.0691 52.0894 92.465 48.2396C93.3711 46.4812 93.6733 44.4735 93.3251 42.5263C93.1308 40.9316 92.6129 39.3934 91.803 38.006C90.9931 36.6186 89.9083 35.4113 88.6152 34.458C87.2636 33.4751 85.5435 32.7174 84.9292 31.0382C84.8192 30.8344 84.7509 30.6107 84.7285 30.3801C84.706 30.1496 84.7299 29.9168 84.7986 29.6956C84.8672 29.4743 84.9793 29.269 85.1283 29.0917C85.2773 28.9143 85.4603 28.7685 85.6664 28.6628C87.8985 27.6594 90.8473 29.2976 92.3422 30.8949C93.4817 32.2138 94.3203 33.7651 94.7995 35.4409" fill="white"/>
<path d="M25.052 46.2533C25.6571 46.8833 26.4282 47.3293 27.2762 47.5395C28.1242 47.7496 29.0143 47.7155 29.8437 47.441C31.6141 46.9705 33.1959 45.9645 34.3726 44.5605C35.5493 43.1566 36.2633 41.4233 36.4171 39.598C36.4955 39.1627 36.4485 38.714 36.2818 38.3044C36.115 37.8947 35.8352 37.5409 35.4751 37.284C34.2669 36.7311 33.4274 37.8369 32.9564 38.8199C32.2396 40.4376 32.3625 42.7311 30.9086 43.9803C30.069 44.7584 27.796 44.9632 27.407 43.5912C27.3254 43.0413 27.3254 42.4824 27.407 41.9325C27.4771 40.6828 27.6206 39.4383 27.8369 38.2055C27.8369 37.6731 28.0622 36.8949 27.407 36.6492C27.0179 36.5587 26.6121 36.5696 26.2285 36.6807C25.8448 36.7919 25.4962 36.9996 25.2158 37.284C24.4673 38.5103 24.1569 39.9541 24.3353 41.3796C24.0462 42.984 24.2682 44.6386 24.9701 46.11V46.2328" fill="white"/>
<path d="M52.0008 45.8027C52.3192 46.6398 52.746 47.4316 53.2704 48.1577C55.7482 51.4956 60.4173 49.1816 62.076 46.1099C62.7301 44.9195 63.1407 43.6108 63.2841 42.2601C63.3661 41.7171 63.3661 41.1648 63.2841 40.6218C63.0793 39.9255 62.8132 38.9427 61.9531 38.8812C61.5512 38.912 61.1604 39.0285 60.8073 39.2228C60.4541 39.417 60.1466 39.6846 59.9053 40.0075C59.5146 40.6239 59.2824 41.3274 59.2295 42.0553C59.2295 42.3624 59.2295 42.6696 59.1067 42.9563C59.0191 43.3108 58.9096 43.6597 58.779 44.0007C58.5784 44.6371 58.1848 45.1953 57.6527 45.5979C57.389 45.8017 57.0796 45.9381 56.7513 45.9952C56.423 46.0523 56.0858 46.0284 55.7688 45.9256C53.721 45.2089 54.9701 41.83 54.8678 40.3761C54.8678 39.9665 54.8677 39.2498 54.4582 39.0245C54.1371 38.8353 53.7628 38.7569 53.3928 38.8013C53.0228 38.8457 52.6776 39.0105 52.4104 39.2703C51.7542 40.1949 51.3668 41.2831 51.2909 42.4143C51.215 43.5456 51.4537 44.6758 51.9804 45.6798" fill="white"/>
<path d="M15.4273 55.8983C15.1969 55.8586 14.9615 55.8586 14.7311 55.8983C14.3237 56.1067 14.0146 56.4672 13.871 56.9017C13.5718 57.7462 13.3524 58.6169 13.2157 59.5024C13.0007 60.356 13.0007 61.2496 13.2157 62.1031C13.3616 62.4742 13.5544 62.8251 13.7891 63.1475C14.1671 63.7714 14.7336 64.2591 15.4068 64.54C15.8706 64.6535 16.3568 64.6371 16.8119 64.4926C17.2671 64.3481 17.6736 64.0811 17.987 63.7208C18.6097 62.9918 19.0579 62.1304 19.2977 61.2021L19.6662 59.9325C19.871 59.2158 20.0758 58.499 20.3011 57.7823C20.4327 57.4254 20.4327 57.0333 20.3011 56.6765C20.2021 56.4919 20.0584 56.3351 19.8831 56.2206C19.7078 56.1061 19.5064 56.0376 19.2977 56.0212C18.7315 55.9911 18.1641 55.9911 17.598 56.0212H15.3863" fill="white"/>
<path d="M35.5776 67.6731C37.0111 67.6731 38.424 67.4273 39.8369 67.3044C42.7011 67.041 45.5856 67.0959 48.4377 67.4683C49.1134 67.4683 49.8097 67.6935 50.4854 67.8574C51.1612 68.0212 51.407 68.1236 51.5298 68.5331C51.6527 68.9427 51.0179 69.6389 50.4036 69.8232C48.8638 70.2066 47.2802 70.3856 45.6937 70.3557C37.0316 70.54 28.3694 70.6628 19.6868 70.6628C19.1544 70.6628 18.3967 70.6628 18.2533 69.9666C17.9666 68.7379 19.6254 68.3898 20.4855 67.9188C21.0045 67.736 21.5533 67.6527 22.1032 67.6731H31.093H35.5366" fill="white"/>
<path d="M94.779 35.2567L95.25 36.6082C96.8878 40.9591 97.0106 45.7353 95.5982 50.1645C95.2701 51.0204 94.6644 51.7414 93.878 52.2123C91.4716 53.373 88.8179 53.9275 86.1481 53.8276C83.4783 53.7276 80.8735 52.9763 78.5606 51.6389C74.9975 48.8949 74.465 43.7345 74.9565 39.3522C75.0794 38.3488 75.3865 37.1611 76.349 36.8335C76.8691 36.7419 77.4045 36.8548 77.8433 37.1486C78.2821 37.4425 78.5905 37.8945 78.704 38.4103C78.9195 39.4468 78.9815 40.5093 78.8882 41.5639C78.8882 42.0349 79.052 42.4853 79.0316 42.9358C79.0111 43.0853 79.0111 43.2369 79.0316 43.3864C79.0628 43.8202 79.1245 44.2513 79.2159 44.6765C79.3701 45.5213 79.6387 46.3412 80.0145 47.1133C81.8984 50.8608 90.0691 52.0894 92.465 48.2396C93.3711 46.4812 93.6733 44.4735 93.3251 42.5263C93.1308 40.9316 92.6129 39.3934 91.803 38.006C90.9931 36.6186 89.9083 35.4113 88.6152 34.458C87.2636 33.4751 85.5435 32.7174 84.9292 31.0382C84.8192 30.8344 84.7509 30.6107 84.7285 30.3801C84.706 30.1496 84.7299 29.9168 84.7986 29.6956C84.8672 29.4743 84.9793 29.269 85.1283 29.0917C85.2773 28.9143 85.4603 28.7685 85.6664 28.6628C87.8985 27.6594 90.8473 29.2976 92.3422 30.8949C93.4817 32.2138 94.3203 33.7651 94.7995 35.4409" fill="white"/>
</g>
<defs>
<clipPath id="clip0_803_6376">
<rect width="97.4745" height="82.5257" fill="white" transform="translate(3.05884 11.2157)"/>
</clipPath>
</defs>
</svg>
